<?xml version="1.0" standalone="no"?>
<!DOCTYPE svg PUBLIC "-//W3C//DTD SVG 20010904//EN"
 "http://www.w3.org/TR/2001/REC-SVG-20010904/DTD/svg10.dtd">
<svg version="1.0" xmlns="http://www.w3.org/2000/svg"
 width="400.000000pt" height="400.000000pt" viewBox="0 0 400.000000 400.000000"
 preserveAspectRatio="xMidYMid meet">
<metadata>
Created by potrace 1.14, written by Peter Selinger 2001-2017
</metadata>
<g transform="translate(0.000000,400.000000) scale(0.100000,-0.100000)"
fill="#000000" stroke="none">
<path d="M0 2000 l0 -2000 2000 0 2000 0 0 2000 0 2000 -2000 0 -2000 0 0
-2000z m2488 1385 c317 -66 576 -305 664 -612 18 -63 23 -103 23 -208 0 -151
-14 -216 -76 -346 -39 -82 -40 -88 -26 -115 8 -16 24 -58 35 -94 101 -314 -12
-669 -271 -854 -99 -70 -707 -456 -769 -488 -132 -67 -263 -94 -421 -85 -369
20 -688 272 -789 624 -19 64 -23 102 -23 213 1 157 15 221 76 347 39 78 40 83
25 111 -9 17 -27 70 -42 119 -22 73 -26 109 -27 208 -1 149 17 227 80 355 40
80 61 109 138 185 81 82 126 113 455 322 435 275 473 295 611 322 72 14 262
12 337 -4z"/>
<path d="M2207 3064 c-78 -19 -75 -17 -477 -273 -378 -241 -435 -285 -482
-383 -132 -270 18 -599 314 -689 56 -17 88 -20 176 -17 129 4 163 18 381 157
129 81 149 91 191 91 52 0 99 -25 134 -72 29 -41 27 -117 -5 -157 -21 -27
-156 -117 -619 -410 -94 -60 -109 -66 -156 -66 -82 0 -144 57 -154 142 -5 45
-6 47 -55 63 -67 23 -150 65 -208 106 l-47 34 -11 -27 c-23 -61 -32 -155 -20
-228 46 -278 318 -470 597 -421 44 7 100 24 125 36 24 13 172 105 329 205 157
100 315 201 351 223 76 48 158 130 188 190 68 134 67 303 -4 442 -39 76 -134
172 -214 214 -120 63 -237 80 -359 51 -78 -18 -122 -41 -291 -149 -74 -47
-149 -88 -167 -92 -51 -9 -93 5 -134 46 -63 63 -62 150 1 206 25 23 638 412
691 440 41 21 116 14 155 -14 37 -26 63 -78 63 -125 0 -34 2 -36 53 -53 63
-20 146 -62 207 -103 25 -17 48 -31 52 -31 6 0 23 67 33 135 10 66 -12 173
-52 255 -104 215 -352 331 -586 274z"/>
</g>
</svg>
